<svg width="1.6cm" height="2.3cm" viewBox="0 0 113 163" fill="none" xmlns="http://www.w3.org/2000/svg">
<mask id="path-1-inside-1_103_3" fill="white">
<path fill-rule="evenodd" clip-rule="evenodd" d="M56.5 163C87.7041 163 113 126.511 113 81.5V163H56.5ZM56.5 0H113V81.5C113 36.4888 87.7041 0 56.5 0ZM0 81.5V0H56.5C25.2959 0 0 36.4888 0 81.5ZM0 81.5V163H56.5C25.2959 163 0 126.511 0 81.5Z"/>
</mask>
<path fill-rule="evenodd" clip-rule="evenodd" d="M56.5 163C87.7041 163 113 126.511 113 81.5V163H56.5ZM56.5 0H113V81.5C113 36.4888 87.7041 0 56.5 0ZM0 81.5V0H56.5C25.2959 0 0 36.4888 0 81.5ZM0 81.5V163H56.5C25.2959 163 0 126.511 0 81.5Z" fill="#D9D9D9"/>
<path d="M113 163V164H114V163H113ZM113 0H114V-1H113V0ZM0 0V-1H-1V0H0ZM0 163H-1V164H0V163ZM112 81.5C112 103.828 105.724 123.998 95.6297 138.559C85.5324 153.125 71.6818 162 56.5 162V164C72.5223 164 86.9217 154.631 97.2734 139.699C107.628 124.763 114 104.184 114 81.5H112ZM112 81.5V163H114V81.5H112ZM113 162H56.5V164H113V162ZM56.5 1H113V-1H56.5V1ZM112 0V81.5H114V0H112ZM56.5 1C71.6818 1 85.5324 9.87538 95.6297 24.4405C105.724 39.0019 112 59.1723 112 81.5H114C114 58.8164 107.628 38.2369 97.2734 23.3011C86.9217 8.36902 72.5223 -1 56.5 -1V1ZM1 81.5V0H-1V81.5H1ZM0 1H56.5V-1H0V1ZM1 81.5C1 59.1723 7.27563 39.0019 17.3703 24.4405C27.4676 9.87538 41.3182 1 56.5 1V-1C40.4777 -1 26.0783 8.36902 15.7266 23.3011C5.37233 38.2369 -1 58.8164 -1 81.5H1ZM1 163V81.5H-1V163H1ZM56.5 162H0V164H56.5V162ZM56.5 162C41.3182 162 27.4676 153.125 17.3703 138.559C7.27563 123.998 1 103.828 1 81.5H-1C-1 104.184 5.37233 124.763 15.7266 139.699C26.0783 154.631 40.4777 164 56.5 164V162Z" fill="black" mask="url(#path-1-inside-1_103_3)"/>
</svg>
